<svg width="129" height="29" viewBox="0 0 129 29" fill="none" xmlns="http://www.w3.org/2000/svg">
<path d="M34.389 0.964H36.565L37.942 4.959L39.336 0.964H41.495L39.421 6.455L40.951 10.297L44.368 0.929999H46.918L42.09 13H40.067L37.942 7.934L35.834 13H33.811L29 0.929999H31.516L34.95 10.297L36.446 6.455L34.389 0.964ZM52.8406 13.085C51.9566 13.085 51.152 12.915 50.4266 12.575C49.7126 12.235 49.095 11.776 48.5736 11.198C48.0636 10.6087 47.667 9.95133 47.3836 9.226C47.1003 8.48933 46.9586 7.73567 46.9586 6.965C46.9586 6.16033 47.106 5.39533 47.4006 4.67C47.7066 3.93333 48.1203 3.28167 48.6416 2.715C49.1743 2.137 49.7976 1.68367 50.5116 1.355C51.237 1.015 52.0303 0.844999 52.8916 0.844999C53.7643 0.844999 54.5576 1.02067 55.2716 1.372C55.997 1.72333 56.6146 2.19367 57.1246 2.783C57.6346 3.37233 58.0313 4.02967 58.3146 4.755C58.598 5.48033 58.7396 6.22833 58.7396 6.999C58.7396 7.79233 58.5923 8.55733 58.2976 9.294C58.003 10.0193 57.5893 10.671 57.0566 11.249C56.5353 11.8157 55.912 12.2633 55.1866 12.592C54.4726 12.9207 53.6906 13.085 52.8406 13.085ZM49.3386 6.965C49.3386 7.48633 49.418 7.99067 49.5766 8.478C49.7353 8.96533 49.962 9.40167 50.2566 9.787C50.5626 10.161 50.931 10.4613 51.3616 10.688C51.8036 10.9033 52.3023 11.011 52.8576 11.011C53.4243 11.011 53.9286 10.8977 54.3706 10.671C54.8126 10.433 55.181 10.1213 55.4756 9.736C55.7703 9.33933 55.9913 8.903 56.1386 8.427C56.2973 7.93967 56.3766 7.45233 56.3766 6.965C56.3766 6.44367 56.2916 5.945 56.1216 5.469C55.963 4.98167 55.7306 4.551 55.4246 4.177C55.13 3.79167 54.7616 3.49133 54.3196 3.276C53.889 3.04933 53.4016 2.936 52.8576 2.936C52.2796 2.936 51.7696 3.055 51.3276 3.293C50.897 3.51967 50.5343 3.82567 50.2396 4.211C49.945 4.59633 49.7183 5.027 49.5596 5.503C49.4123 5.979 49.3386 6.46633 49.3386 6.965ZM65.6903 13.085C64.8063 13.085 64.0016 12.915 63.2763 12.575C62.5623 12.235 61.9446 11.776 61.4233 11.198C60.9133 10.6087 60.5166 9.95133 60.2333 9.226C59.9499 8.48933 59.8083 7.73567 59.8083 6.965C59.8083 6.16033 59.9556 5.39533 60.2503 4.67C60.5563 3.93333 60.9699 3.28167 61.4913 2.715C62.0239 2.137 62.6473 1.68367 63.3613 1.355C64.0866 1.015 64.8799 0.844999 65.7413 0.844999C66.6139 0.844999 67.4073 1.02067 68.1213 1.372C68.8466 1.72333 69.4643 2.19367 69.9743 2.783C70.4843 3.37233 70.8809 4.02967 71.1643 4.755C71.4476 5.48033 71.5893 6.22833 71.5893 6.999C71.5893 7.79233 71.4419 8.55733 71.1473 9.294C70.8526 10.0193 70.4389 10.671 69.9062 11.249C69.3849 11.8157 68.7616 12.2633 68.0363 12.592C67.3223 12.9207 66.5403 13.085 65.6903 13.085ZM62.1883 6.965C62.1883 7.48633 62.2676 7.99067 62.4263 8.478C62.5849 8.96533 62.8116 9.40167 63.1063 9.787C63.4123 10.161 63.7806 10.4613 64.2113 10.688C64.6533 10.9033 65.1519 11.011 65.7073 11.011C66.2739 11.011 66.7783 10.8977 67.2203 10.671C67.6623 10.433 68.0306 10.1213 68.3253 9.736C68.6199 9.33933 68.8409 8.903 68.9883 8.427C69.1469 7.93967 69.2263 7.45233 69.2263 6.965C69.2263 6.44367 69.1413 5.945 68.9713 5.469C68.8126 4.98167 68.5803 4.551 68.2743 4.177C67.9796 3.79167 67.6113 3.49133 67.1693 3.276C66.7386 3.04933 66.2513 2.936 65.7073 2.936C65.1293 2.936 64.6193 3.055 64.1773 3.293C63.7466 3.51967 63.3839 3.82567 63.0893 4.211C62.7946 4.59633 62.5679 5.027 62.4093 5.503C62.2619 5.979 62.1883 6.46633 62.1883 6.965ZM73.3889 13V0.929999H77.7749C79.0895 0.929999 80.1889 1.202 81.0729 1.746C81.9569 2.27867 82.6199 3.004 83.0619 3.922C83.5039 4.82867 83.7249 5.83733 83.7249 6.948C83.7249 8.172 83.4812 9.23733 82.9939 10.144C82.5065 11.0507 81.8152 11.7533 80.9199 12.252C80.0359 12.7507 78.9875 13 77.7749 13H73.3889ZM81.3619 6.948C81.3619 6.166 81.2202 5.48033 80.9369 4.891C80.6535 4.29033 80.2455 3.82567 79.7129 3.497C79.1802 3.157 78.5342 2.987 77.7749 2.987H75.7349V10.943H77.7749C78.5455 10.943 79.1972 10.773 79.7299 10.433C80.2625 10.0817 80.6649 9.60567 80.9369 9.005C81.2202 8.393 81.3619 7.70733 81.3619 6.948Z" fill="#333333"/>
<path fill-rule="evenodd" clip-rule="evenodd" d="M17 2H0V19C0 21.7614 2.23858 24 5 24H22V7C22 4.23858 19.7614 2 17 2ZM16.0667 4.93333H2.93333V18.0667C2.93333 19.7235 4.27648 21.0667 5.93333 21.0667H19.0667V7.93333C19.0667 6.27648 17.7235 4.93333 16.0667 4.93333Z" fill="#F88500"/>
<path d="M32.612 26.12C32.156 26.12 31.736 26.036 31.352 25.868C30.976 25.692 30.644 25.452 30.356 25.148C30.076 24.844 29.856 24.496 29.696 24.104C29.544 23.712 29.468 23.296 29.468 22.856C29.468 22.264 29.6 21.724 29.864 21.236C30.128 20.748 30.496 20.36 30.968 20.072C31.44 19.784 31.984 19.64 32.6 19.64C33.184 19.64 33.7 19.776 34.148 20.048C34.596 20.312 34.928 20.672 35.144 21.128L34.352 21.38C34.176 21.06 33.928 20.812 33.608 20.636C33.296 20.452 32.948 20.36 32.564 20.36C32.148 20.36 31.768 20.468 31.424 20.684C31.08 20.9 30.804 21.196 30.596 21.572C30.396 21.948 30.296 22.376 30.296 22.856C30.296 23.328 30.4 23.756 30.608 24.14C30.816 24.524 31.092 24.832 31.436 25.064C31.78 25.288 32.16 25.4 32.576 25.4C32.848 25.4 33.108 25.352 33.356 25.256C33.612 25.16 33.832 25.032 34.016 24.872C34.208 24.704 34.336 24.524 34.4 24.332L35.204 24.572C35.092 24.868 34.904 25.136 34.64 25.376C34.384 25.608 34.08 25.792 33.728 25.928C33.384 26.056 33.012 26.12 32.612 26.12ZM41.9713 26.12C41.5233 26.12 41.1073 26.036 40.7233 25.868C40.3473 25.692 40.0193 25.456 39.7393 25.16C39.4673 24.856 39.2553 24.512 39.1033 24.128C38.9513 23.736 38.8753 23.324 38.8753 22.892C38.8753 22.444 38.9513 22.028 39.1033 21.644C39.2553 21.252 39.4713 20.908 39.7513 20.612C40.0313 20.308 40.3593 20.072 40.7353 19.904C41.1193 19.728 41.5353 19.64 41.9833 19.64C42.4313 19.64 42.8433 19.728 43.2193 19.904C43.5953 20.072 43.9233 20.308 44.2033 20.612C44.4833 20.908 44.6993 21.252 44.8513 21.644C45.0033 22.028 45.0793 22.444 45.0793 22.892C45.0793 23.324 45.0033 23.736 44.8513 24.128C44.6993 24.512 44.4833 24.856 44.2033 25.16C43.9313 25.456 43.6033 25.692 43.2193 25.868C42.8433 26.036 42.4273 26.12 41.9713 26.12ZM39.7033 22.904C39.7033 23.368 39.8033 23.792 40.0033 24.176C40.2113 24.552 40.4873 24.852 40.8313 25.076C41.1753 25.292 41.5553 25.4 41.9713 25.4C42.3873 25.4 42.7673 25.288 43.1113 25.064C43.4553 24.84 43.7313 24.536 43.9393 24.152C44.1473 23.76 44.2513 23.336 44.2513 22.88C44.2513 22.416 44.1473 21.992 43.9393 21.608C43.7313 21.224 43.4553 20.92 43.1113 20.696C42.7673 20.472 42.3873 20.36 41.9713 20.36C41.5553 20.36 41.1753 20.476 40.8313 20.708C40.4953 20.94 40.2233 21.248 40.0153 21.632C39.8073 22.008 39.7033 22.432 39.7033 22.904ZM58.6241 26H57.8081V22.508C57.8081 21.78 57.6921 21.244 57.4601 20.9C57.2281 20.556 56.8841 20.384 56.4281 20.384C55.9561 20.384 55.5321 20.552 55.1561 20.888C54.7881 21.224 54.5281 21.656 54.3761 22.184V26H53.5601V22.508C53.5601 21.772 53.4481 21.236 53.2241 20.9C53.0001 20.556 52.6561 20.384 52.1921 20.384C51.7281 20.384 51.3081 20.548 50.9321 20.876C50.5561 21.204 50.2921 21.636 50.1401 22.172V26H49.3241V19.748H50.0681V21.164C50.3321 20.676 50.6681 20.3 51.0761 20.036C51.4921 19.772 51.9521 19.64 52.4561 19.64C52.9761 19.64 53.3961 19.788 53.7161 20.084C54.0361 20.38 54.2321 20.768 54.3041 21.248C54.5921 20.72 54.9361 20.32 55.3361 20.048C55.7441 19.776 56.2041 19.64 56.7161 19.64C57.0681 19.64 57.3641 19.704 57.6041 19.832C57.8521 19.96 58.0481 20.144 58.1921 20.384C58.3441 20.616 58.4521 20.9 58.5161 21.236C58.5881 21.564 58.6241 21.932 58.6241 22.34V26ZM66.4234 26.12C65.9034 26.12 65.4354 25.984 65.0194 25.712C64.6114 25.44 64.2874 25.104 64.0474 24.704V28.556H63.2314V19.748H63.9634V20.96C64.2114 20.568 64.5434 20.252 64.9594 20.012C65.3754 19.764 65.8194 19.64 66.2914 19.64C66.7234 19.64 67.1194 19.732 67.4794 19.916C67.8394 20.092 68.1514 20.332 68.4154 20.636C68.6794 20.94 68.8834 21.288 69.0274 21.68C69.1794 22.064 69.2554 22.464 69.2554 22.88C69.2554 23.464 69.1354 24.004 68.8954 24.5C68.6634 24.988 68.3354 25.38 67.9114 25.676C67.4874 25.972 66.9914 26.12 66.4234 26.12ZM66.1954 25.4C66.5394 25.4 66.8474 25.332 67.1194 25.196C67.3914 25.052 67.6234 24.86 67.8154 24.62C68.0154 24.38 68.1674 24.112 68.2714 23.816C68.3754 23.512 68.4274 23.2 68.4274 22.88C68.4274 22.544 68.3674 22.224 68.2474 21.92C68.1354 21.616 67.9714 21.348 67.7554 21.116C67.5394 20.884 67.2914 20.7 67.0114 20.564C66.7314 20.428 66.4274 20.36 66.0994 20.36C65.8914 20.36 65.6754 20.4 65.4514 20.48C65.2274 20.56 65.0114 20.676 64.8034 20.828C64.6034 20.972 64.4354 21.136 64.2994 21.32C64.1634 21.504 64.0794 21.7 64.0474 21.908V23.828C64.1754 24.124 64.3474 24.392 64.5634 24.632C64.7794 24.864 65.0274 25.052 65.3074 25.196C65.5954 25.332 65.8914 25.4 66.1954 25.4ZM73.0137 24.2C73.0137 23.808 73.1257 23.472 73.3497 23.192C73.5737 22.904 73.8817 22.684 74.2737 22.532C74.6737 22.372 75.1337 22.292 75.6537 22.292C75.9577 22.292 76.2737 22.316 76.6017 22.364C76.9297 22.412 77.2217 22.484 77.4777 22.58V22.052C77.4777 21.524 77.3217 21.104 77.0097 20.792C76.6977 20.48 76.2657 20.324 75.7137 20.324C75.3777 20.324 75.0457 20.388 74.7177 20.516C74.3977 20.636 74.0617 20.816 73.7097 21.056L73.3977 20.48C73.8057 20.2 74.2057 19.992 74.5977 19.856C74.9897 19.712 75.3897 19.64 75.7977 19.64C76.5657 19.64 77.1737 19.86 77.6217 20.3C78.0697 20.74 78.2937 21.348 78.2937 22.124V25.016C78.2937 25.128 78.3177 25.212 78.3657 25.268C78.4137 25.316 78.4897 25.344 78.5937 25.352V26C78.5057 26.008 78.4297 26.016 78.3657 26.024C78.3017 26.032 78.2537 26.032 78.2217 26.024C78.0217 26.016 77.8697 25.952 77.7657 25.832C77.6617 25.712 77.6057 25.584 77.5977 25.448L77.5857 24.992C77.3057 25.352 76.9417 25.632 76.4937 25.832C76.0457 26.024 75.5897 26.12 75.1257 26.12C74.7257 26.12 74.3617 26.036 74.0337 25.868C73.7137 25.692 73.4617 25.46 73.2777 25.172C73.1017 24.876 73.0137 24.552 73.0137 24.2ZM77.2017 24.68C77.2897 24.568 77.3577 24.46 77.4057 24.356C77.4537 24.252 77.4777 24.16 77.4777 24.08V23.168C77.2057 23.064 76.9217 22.984 76.6257 22.928C76.3377 22.872 76.0457 22.844 75.7497 22.844C75.1657 22.844 74.6937 22.96 74.3337 23.192C73.9737 23.424 73.7937 23.74 73.7937 24.14C73.7937 24.372 73.8537 24.592 73.9737 24.8C74.0937 25 74.2697 25.168 74.5017 25.304C74.7337 25.432 75.0057 25.496 75.3177 25.496C75.7097 25.496 76.0737 25.42 76.4097 25.268C76.7537 25.116 77.0177 24.92 77.2017 24.68ZM88.1927 26H87.3767V22.508C87.3767 21.772 87.2687 21.236 87.0527 20.9C86.8367 20.556 86.4967 20.384 86.0327 20.384C85.7127 20.384 85.3967 20.464 85.0847 20.624C84.7727 20.776 84.4967 20.988 84.2567 21.26C84.0247 21.524 83.8567 21.828 83.7527 22.172V26H82.9367V19.748H83.6807V21.164C83.8487 20.86 84.0687 20.596 84.3407 20.372C84.6127 20.14 84.9207 19.96 85.2647 19.832C85.6087 19.704 85.9647 19.64 86.3327 19.64C86.6767 19.64 86.9687 19.704 87.2087 19.832C87.4487 19.96 87.6407 20.144 87.7847 20.384C87.9287 20.616 88.0327 20.9 88.0967 21.236C88.1607 21.564 88.1927 21.932 88.1927 22.34V26ZM93.0439 27.92C93.1559 27.928 93.2639 27.932 93.3679 27.932C93.4719 27.94 93.5479 27.936 93.5959 27.92C93.6919 27.904 93.7839 27.848 93.8719 27.752C93.9599 27.656 94.0639 27.472 94.1839 27.2C94.3039 26.928 94.4719 26.528 94.6879 26L91.9639 19.748H92.8279L95.1199 25.16L97.2319 19.748H98.0479L94.8079 27.812C94.7519 27.964 94.6679 28.104 94.5559 28.232C94.4439 28.368 94.3039 28.472 94.1359 28.544C93.9759 28.624 93.7759 28.668 93.5359 28.676C93.4639 28.684 93.3879 28.684 93.3079 28.676C93.2359 28.676 93.1479 28.668 93.0439 28.652V27.92Z" fill="#333333"/>
</svg>
